<svg xmlns="http://www.w3.org/2000/svg" xmlns:xlink="http://www.w3.org/1999/xlink" id="svg" width="400" height="400" viewBox="0, 0, 400,400 undefined"><g id="svgg"><path id="path0" d="M99.631 1.975 C 15.577 15.597,-21.035 93.718,11.512 189.995 L 15.129 200.693 11.513 211.479 C -1.893 251.472,-3.780 291.671,6.286 322.856 C 17.323 357.050,43.493 383.214,77.905 394.459 C 108.094 404.325,150.751 402.207,190.474 388.870 L 200.089 385.642 209.615 388.883 C 248.596 402.144,291.995 404.296,322.095 394.459 C 391.240 371.864,417.624 298.280,388.107 210.359 L 384.896 200.796 388.499 190.046 C 401.887 150.108,403.776 109.587,393.689 78.720 C 371.241 10.026,296.869 -16.977,210.732 12.293 L 199.980 15.947 191.591 13.066 C 160.532 2.396,124.127 -1.995,99.631 1.975 M136.719 33.269 C 143.149 33.783,155.666 35.942,156.467 36.675 C 156.802 36.981,154.155 39.016,150.587 41.197 C 143.561 45.490,127.070 57.061,124.724 59.343 C 123.319 60.709,123.379 60.823,126.736 63.132 C 131.775 66.599,138.290 73.952,141.257 79.522 C 144.348 85.325,143.566 85.229,149.904 80.581 C 167.013 68.036,195.539 51.563,200.154 51.563 C 211.359 51.563,260.697 86.375,287.551 113.230 C 314.608 140.286,349.219 189.426,349.219 200.783 C 349.219 205.305,330.802 236.844,318.815 252.850 L 316.388 256.091 320.875 258.623 C 326.320 261.696,334.265 269.177,337.597 274.369 L 340.047 278.188 345.122 271.321 C 351.100 263.231,358.229 252.695,361.303 247.409 C 362.506 245.340,363.762 243.934,364.095 244.284 C 367.421 247.794,368.943 288.608,366.217 301.219 C 355.201 352.192,311.956 377.016,251.953 366.809 C 242.323 365.171,241.925 364.818,246.628 362.084 C 251.922 359.006,262.453 351.878,270.575 345.877 L 277.479 340.775 272.919 337.649 C 265.854 332.806,257.956 323.477,256.031 317.701 C 255.872 317.226,253.308 318.623,250.332 320.806 C 233.358 333.259,204.496 350.000,200.002 350.000 C 188.644 350.000,139.505 315.389,112.449 288.333 C 85.594 261.478,50.781 212.140,50.781 200.935 C 50.781 196.320,67.255 167.794,79.800 150.686 C 84.448 144.346,84.545 145.129,78.735 142.038 C 73.934 139.484,65.417 131.814,61.614 126.620 L 59.655 123.944 54.961 130.136 C 49.761 136.995,42.067 148.357,38.697 154.153 C 35.986 158.817,35.630 158.445,33.971 149.219 C 23.605 91.599,47.893 47.015,95.958 35.432 C 108.387 32.436,119.157 31.865,136.719 33.269 M291.392 33.249 C 345.783 37.602,377.300 86.571,366.029 149.219 C 364.370 158.445,364.014 158.817,361.303 154.153 C 354.686 142.773,340.008 122.748,328.481 109.375 C 305.668 82.909,272.262 54.383,246.628 39.479 C 241.968 36.769,242.332 36.424,251.563 34.800 C 265.383 32.369,275.481 31.976,291.392 33.249 M92.458 87.545 C 81.769 92.836,81.809 110.412,92.521 115.598 C 100.726 119.569,110.420 116.612,114.292 108.957 C 121.376 94.952,106.657 80.517,92.458 87.545 M185.938 99.551 C 146.435 108.320,122.429 145.368,130.087 185.742 C 132.748 199.768,136.871 208.502,149.118 226.054 C 160.904 242.944,161.020 243.298,161.624 264.063 C 162.192 283.558,163.360 287.501,170.712 294.735 C 177.912 301.817,180.849 302.693,198.438 303.001 C 231.640 303.582,239.581 295.873,240.558 262.109 C 241.147 241.753,240.921 242.458,252.370 225.351 C 267.895 202.155,273.444 183.378,271.058 162.115 C 266.294 119.672,226.631 90.519,185.938 99.551 M216.551 133.733 C 243.547 146.594,246.919 175.453,225.215 207.881 C 221.352 213.654,217.431 219.867,216.501 221.688 L 214.812 225.000 200.840 225.000 L 186.868 225.000 184.532 220.898 C 183.248 218.643,179.184 212.578,175.501 207.422 C 161.908 188.389,158.163 175.043,162.135 159.793 C 168.185 136.567,195.272 123.596,216.551 133.733 M43.893 255.517 C 69.939 295.666,110.246 335.394,149.693 359.797 C 158.167 365.039,158.167 365.032,148.828 366.698 C 85.987 377.905,40.573 349.731,32.761 294.694 C 30.567 279.236,33.909 239.833,36.991 244.812 C 37.486 245.610,40.592 250.427,43.893 255.517 M208.594 264.063 L 208.594 271.875 201.172 271.875 L 193.750 271.875 193.750 264.063 L 193.750 256.250 201.172 256.250 L 208.594 256.250 208.594 264.063 M289.719 285.849 C 279.888 292.084,280.619 308.248,290.959 313.254 C 307.151 321.092,322.115 301.513,310.257 288.003 C 305.921 283.062,295.789 281.999,289.719 285.849 " stroke="none" fill="#e9a800" fill-rule="evenodd"/></g></svg>