<?xml version="1.0" encoding="iso-8859-1"?>
<!-- Generator: Adobe Illustrator 19.0.0, SVG Export Plug-In . SVG Version: 6.00 Build 0)  -->
<svg version="1.1" id="Capa_1" xmlns="http://www.w3.org/2000/svg" xmlns:xlink="http://www.w3.org/1999/xlink" x="0px" y="0px"
	 viewBox="0 0 490 490" style="enable-background:new 0 0 490 490;" xml:space="preserve" fill="#FF37F7">
<path id="XMLID_823_" d="M427,220h-27V84.625C400,37.962,362.037,0,315.375,0H84.625C37.963,0,0,37.962,0,84.625v160.75
	C0,292.038,37.963,330,84.625,330H210v121c0,21.505,17.495,39,39,39c3.245,0,6.403-1.053,9-3l36-27h133c34.738,0,63-28.262,63-63
	V283C490,248.262,461.738,220,427,220z M84.625,300C54.505,300,30,275.495,30,245.375V84.625C30,54.505,54.505,30,84.625,30h230.75
	C345.495,30,370,54.505,370,84.625v245.563c0,9.245-6.365,17.031-14.943,19.207l-53.098-45.757
	c-2.723-2.347-6.197-3.637-9.792-3.637H84.625z M460,397c0,18.196-14.804,33-33,33H289c-3.245,0-6.403,1.053-9,3l-34.848,26.136
	C242.109,457.69,240,454.587,240,451V330h46.596l53.8,46.363c2.723,2.347,6.197,3.637,9.792,3.637
	C377.654,380,400,357.654,400,330.188V250h27c18.196,0,33,14.804,33,33V397z M227.752,89.558c-10.216,0-19.987,2.879-28.419,8.259
	c-8.434-5.38-18.205-8.259-28.42-8.259c-14.35,0-27.824,5.683-37.942,16c-20.698,21.104-20.698,55.442-0.001,76.545l43.3,44.149
	c6.144,6.265,14.335,9.715,23.064,9.715c8.729,0,16.92-3.45,23.063-9.715c0,0,42.909-43.751,43.306-44.156
	c20.689-21.104,20.688-55.437-0.007-76.538C255.578,95.24,242.103,89.558,227.752,89.558z M244.278,161.096L244.278,161.096
	l-43.3,44.149c-0.938,0.958-2.353,0.957-3.291,0c0,0-42.869-43.71-43.299-44.15c-9.338-9.521-9.338-25.012,0-34.533
	c4.431-4.517,10.299-7.005,16.525-7.005s12.096,2.488,16.52,6.999c0.247,0.252,0.485,0.51,0.72,0.771
	c1.995,2.217,5.909,4.965,11.537,4.965c4.139,0,8.054-1.888,10.822-4.965c0.23-0.256,0.465-0.51,0.714-0.764
	c4.431-4.518,10.3-7.005,16.525-7.005c6.227,0,12.096,2.488,16.526,7.005C253.615,136.084,253.615,151.576,244.278,161.096z"/>
<g>
</g>
<g>
</g>
<g>
</g>
<g>
</g>
<g>
</g>
<g>
</g>
<g>
</g>
<g>
</g>
<g>
</g>
<g>
</g>
<g>
</g>
<g>
</g>
<g>
</g>
<g>
</g>
<g>
</g>
</svg>
